<svg xmlns="http://www.w3.org/2000/svg" xmlns:xlink="http://www.w3.org/1999/xlink" version="1.1" x="0px" y="0px" viewBox="0 0 841.89 744.0999999999999" enable-background="new 0 0 841.89 595.28" xml:space="preserve"><path opacity="0.6" d="M721.41,259.621c-0.001-0.211-0.002-0.416-0.004-0.625C721.407,259.205,721.408,259.411,721.41,259.621  L721.41,259.621z"/><g><path d="M377.063,293.978v-5.646l-1.063-0.952v-44.217l1.063-0.953v-5.646l0.938-0.841v-5.313c-3.685,0.061-7.352,0.13-11,0.209   v5.104l0.938,0.841v5.59l1.125,1.01h-0.063v44.217h0.063l-1.125,1.009v5.59l-0.938,0.842v5.567c3.647-0.035,7.314-0.068,11-0.098   v-5.469L377.063,293.978z"/><path d="M342.563,294.69v-5.644l-1.063-0.951v-44.188l1.063-0.952v-5.643l0.938-0.841v-5.208c-3.689,0.123-7.356,0.255-11,0.396   v4.812l0.938,0.841v5.586l1.125,1.009h-0.063v44.188h0.063l-1.125,1.008v5.587l-0.938,0.841v5.321c3.643-0.063,7.31-0.121,11-0.176   v-5.145L342.563,294.69z"/><path d="M310.063,295.228v-5.558l-1.063-0.938v-43.521l1.063-0.938v-5.559l0.938-0.828v-5.268c-3.695,0.186-7.361,0.383-11,0.588   v4.68l0.938,0.828v5.502l1.125,0.994h-0.063v43.521h0.063l-1.125,0.994v5.502l-0.938,0.828v5.469c3.637-0.09,7.304-0.174,11-0.256   v-5.213L310.063,295.228z"/><path d="M409.563,293.978v-5.646l-1.063-0.952v-44.217l1.063-0.953v-5.646l0.938-0.841v-5.597c-3.681,0.005-7.348,0.019-11,0.041   v5.556l0.938,0.841v5.591l1.125,1.009h-0.063v44.217h0.063l-1.125,1.009v5.59l-0.938,0.842v5.348c3.651-0.012,7.319-0.021,11-0.025   v-5.323L409.563,293.978z"/><path d="M281.063,296.43v-5.509l-1.063-0.93V246.85l1.063-0.93v-5.51l0.938-0.82v-5.272c-3.7,0.248-7.369,0.505-11,0.773v4.499   l0.938,0.82v5.454l1.125,0.985h-0.063v43.142h0.063l-1.125,0.984v5.454l-0.938,0.821v5.088c3.629-0.115,7.297-0.227,11-0.334   v-4.754L281.063,296.43z"/><path d="M256.48,297.533v-5.453l-1.063-0.919v-42.693l1.063-0.92v-5.452l0.938-0.812v-5.127c-3.707,0.307-7.376,0.623-11,0.951   v4.176l0.938,0.812v5.397l1.125,0.975h-0.063v42.693h0.063l-1.125,0.974v5.398l-0.938,0.812v4.863   c3.621-0.141,7.291-0.277,11-0.408v-4.455L256.48,297.533z"/><path d="M231.897,298.761v-5.367l-1.063-0.904v-42.028l1.063-0.905v-5.367l0.938-0.8v-4.984c-3.718,0.375-7.383,0.762-11,1.158   v3.826l0.938,0.8v5.313l1.125,0.959h-0.063v42.028h0.063l-1.125,0.959v5.313l-0.938,0.801v4.701c3.612-0.17,7.279-0.336,11-0.498   v-4.203L231.897,298.761z"/><path d="M207.313,300.18v-5.255l-1.063-0.886v-41.151l1.063-0.887v-5.255l0.938-0.782v-4.83c-3.728,0.453-7.398,0.918-11,1.396   v3.435l0.938,0.782v5.202l1.125,0.939h-0.063v41.151h0.063l-1.125,0.939v5.202l-0.938,0.781v4.584   c3.598-0.207,7.266-0.408,11-0.604v-3.98L207.313,300.18z"/><path d="M182.73,302.34v-5.201l-1.063-0.877v-40.715l1.063-0.877v-5.2l0.938-0.774v-4.264c-3.747,0.555-7.416,1.121-11,1.701v2.563   l0.938,0.774v5.147l1.125,0.93h-0.063v40.715h0.063l-1.125,0.929v5.149l-0.938,0.773v3.992c3.576-0.252,7.244-0.498,11-0.738   v-3.254L182.73,302.34z"/><path d="M158.147,303.598v-4.906l-1.063-0.827v-38.411l1.063-0.827v-4.905l0.938-0.73v-4.526c-3.778,0.688-7.446,1.394-11,2.112   v2.414l0.938,0.73v4.855l1.125,0.877h-0.063v38.411h0.063l-1.125,0.877v4.856l-0.938,0.73v4.727c3.538-0.316,7.208-0.627,11-0.93   v-3.797L158.147,303.598z"/><path d="M133.563,306.709v-4.75l-1.063-0.801v-37.189l1.063-0.802v-4.749l0.938-0.707v-4.183c-3.835,0.896-7.508,1.812-11,2.745   v1.438l0.938,0.707v4.701l1.125,0.85h-0.063v37.189h0.063l-1.125,0.85v4.701l-0.938,0.707v4.193c3.457-0.422,7.128-0.838,11-1.242   v-2.951L133.563,306.709z"/><g><path d="M465.438,293.978v-5.646l1.063-0.952v-44.217l-1.063-0.953v-5.646l-0.938-0.841v-5.313c3.685,0.061,7.353,0.13,11,0.209    v5.104l-0.938,0.841v5.59l-1.125,1.01h0.063v44.217h-0.063l1.125,1.009v5.59l0.938,0.842v5.567c-3.647-0.035-7.314-0.068-11-0.098    v-5.469L465.438,293.978z"/><path d="M499.938,294.69v-5.644l1.063-0.951v-44.188l-1.063-0.952v-5.643l-0.938-0.841v-5.208c3.689,0.123,7.356,0.255,11,0.396    v4.812l-0.938,0.841v5.586l-1.125,1.009h0.063v44.188h-0.063l1.125,1.008v5.587l0.938,0.841v5.321    c-3.643-0.063-7.31-0.121-11-0.176v-5.145L499.938,294.69z"/><path d="M532.438,295.228v-5.558l1.063-0.938v-43.521l-1.063-0.938v-5.559l-0.938-0.828v-5.268c3.695,0.186,7.361,0.383,11,0.588    v4.68l-0.938,0.828v5.502l-1.125,0.994h0.063v43.521h-0.063l1.125,0.994v5.502l0.938,0.828v5.469    c-3.637-0.09-7.304-0.174-11-0.256v-5.213L532.438,295.228z"/><path d="M432.938,293.978v-5.646l1.063-0.952v-44.217l-1.063-0.953v-5.646l-0.938-0.841v-5.597c3.681,0.005,7.349,0.019,11,0.041    v5.556l-0.938,0.841v5.591l-1.125,1.009h0.063v44.217h-0.063l1.125,1.009v5.59l0.938,0.842v5.348    c-3.651-0.012-7.319-0.021-11-0.025v-5.323L432.938,293.978z"/><path d="M561.438,296.43v-5.509l1.063-0.93V246.85l-1.063-0.93v-5.51l-0.938-0.82v-5.272c3.7,0.248,7.369,0.505,11,0.773v4.499    l-0.938,0.82v5.454l-1.125,0.985h0.063v43.142h-0.063l1.125,0.984v5.454l0.938,0.821v5.088c-3.63-0.115-7.298-0.227-11-0.334    v-4.754L561.438,296.43z"/><path d="M586.021,297.533v-5.453l1.063-0.919v-42.693l-1.063-0.92v-5.452l-0.938-0.812v-5.127c3.707,0.307,7.377,0.623,11,0.951    v4.176l-0.938,0.812v5.397l-1.125,0.975h0.063v42.693h-0.063l1.125,0.974v5.398l0.938,0.812v4.863    c-3.621-0.141-7.291-0.277-11-0.408v-4.455L586.021,297.533z"/><path d="M610.605,298.761v-5.367l1.063-0.904v-42.028l-1.063-0.905v-5.367l-0.938-0.8v-4.984c3.718,0.375,7.383,0.762,11,1.158    v3.826l-0.938,0.8v5.313l-1.125,0.959h0.063v42.028h-0.063l1.125,0.959v5.313l0.938,0.801v4.701c-3.613-0.17-7.279-0.336-11-0.498    v-4.203L610.605,298.761z"/><path d="M635.188,300.18v-5.255l1.063-0.886v-41.151L635.188,252v-5.255l-0.938-0.782v-4.83c3.728,0.453,7.398,0.918,11,1.396    v3.435l-0.938,0.782v5.202l-1.125,0.939h0.063v41.151h-0.063l1.125,0.939v5.202l0.938,0.781v4.584    c-3.598-0.207-7.266-0.408-11-0.604v-3.98L635.188,300.18z"/><path d="M659.771,302.34v-5.201l1.063-0.877v-40.715l-1.063-0.877v-5.2l-0.938-0.774v-4.264c3.748,0.555,7.416,1.121,11,1.701    v2.563l-0.938,0.774v5.147l-1.125,0.93h0.063v40.715h-0.063l1.125,0.929v5.149l0.938,0.773v3.992    c-3.576-0.252-7.243-0.498-11-0.738v-3.254L659.771,302.34z"/><path d="M684.355,303.598v-4.906l1.063-0.827v-38.411l-1.063-0.827v-4.905l-0.938-0.73v-4.526c3.777,0.688,7.445,1.394,11,2.112    v2.414l-0.938,0.73v4.855l-1.125,0.877h0.063v38.411h-0.063l1.125,0.877v4.856l0.938,0.73v4.727c-3.538-0.316-7.209-0.627-11-0.93    v-3.797L684.355,303.598z"/><path d="M708.938,306.709v-4.75l1.063-0.801v-37.189l-1.063-0.802v-4.749l-0.938-0.707v-4.183c3.835,0.896,7.508,1.812,11,2.745    v1.438l-0.938,0.707v4.701l-1.125,0.85h0.063v37.189h-0.063l1.125,0.85v4.701l0.938,0.707v4.193    c-3.457-0.422-7.128-0.838-11-1.242v-2.951L708.938,306.709z"/></g></g><path fill="none" d="M297.562,201.251h-10.671c-0.478,0-0.866,0.366-0.866,0.818v12.649c0,0.452,0.389,0.818,0.866,0.818h10.671  c0.478,0,0.866-0.366,0.866-0.818v-12.649C298.428,201.618,298.04,201.251,297.562,201.251z"/><path fill="none" d="M329.761,198.565h-11.343c-0.508,0-0.922,0.39-0.922,0.87v13.446c0,0.48,0.414,0.871,0.922,0.871h11.343  c0.508,0,0.922-0.39,0.922-0.871v-13.446C330.683,198.955,330.27,198.565,329.761,198.565z"/><path fill="none" d="M720.541,244.309c0.001,0.109,0.002,0.2,0.003,0.303c0.243,0.081,0.465,0.156,0.645,0.217  c-0.004-0.097-0.007-0.18-0.011-0.298C720.97,244.457,720.751,244.383,720.541,244.309z"/><path d="M721.25,231.037c-0.022-1.669-0.046-3.138-0.072-4.377c-49.873-27.313-164.027-46.408-296.896-46.408  c-138.907,0-257.349,20.872-303.282,50.183c0,1.231,0,2.582,0,4.031c45.934-26.798,164.375-45.88,303.282-45.88  c132.053,0,245.609,17.246,295.959,41.971c0.006,0.002,0.012,0,0.019,0.002C720.609,230.729,720.946,230.891,721.25,231.037z"/><path opacity="0.6" d="M721.46,277.442c-0.006-6.531-0.017-12.687-0.033-18.357l-0.005-0.003  C721.44,264.696,721.453,270.858,721.46,277.442z"/><path fill="none" d="M440.111,331.092c0.046-0.523,0.08-1.053,0.08-1.588c0-9.909-8.032-17.941-17.941-17.941  c-9.909,0-17.941,8.032-17.941,17.941c0,0.535,0.034,1.064,0.08,1.588h-0.139v4.416c3.757-0.005,7.525-0.008,11.306-0.008  c8.29,0,16.521,0.013,24.694,0.037v-4.445H440.111z"/><path fill="none" d="M440.191,329.504c0-9.909-8.032-17.941-17.941-17.941c-9.909,0-17.941,8.032-17.941,17.941  c0,0.535,0.034,1.064,0.08,1.588h-0.139v4.416v38.055h36v-38.025v-4.445h-0.139C440.157,330.568,440.191,330.039,440.191,329.504z"/><path fill-rule="evenodd" clip-rule="evenodd" fill="#000000" d="M449.828,146.341c-3.784-1.335-7.644-0.89-11.427-0.148  c-2.745,0.52-5.49,0.816-8.234,0c-0.892-0.296-1.559-0.593-1.559-1.781c-0.075-1.112-0.891-1.706-2.078-1.632  c-1.112,0.075-1.705,0.742-1.78,1.781c-0.074,0.445-0.074,0.891-0.074,1.336c0,4.482,0.011,8.965,0.04,13.448v21.545h2.58v-21.385  c2.894,1.123,7.164,1.439,9.919,0.859c1.483-0.223,2.967-0.446,4.451-0.668c3.042-0.445,6.084-0.074,9.126,0.964  c0-4.748,0-9.274,0-13.874C450.421,146.638,450.124,146.49,449.828,146.341z"/><path fill="none" d="M546.192,316.307h6.924c0.827,0,1.497-0.503,1.497-1.121v-7.078c0-0.618-0.67-1.12-1.497-1.12h-6.924  c-0.827,0-1.497,0.502-1.497,1.12v7.078C544.695,315.804,545.365,316.307,546.192,316.307z"/><path fill="none" d="M606.354,318.975h6.504c0.777,0,1.406-0.503,1.406-1.121v-7.078c0-0.618-0.629-1.12-1.406-1.12h-6.504  c-0.777,0-1.406,0.502-1.406,1.12v7.078C604.947,318.472,605.576,318.975,606.354,318.975z"/><path fill="none" d="M656.373,320.886h6.086c0.728,0,1.316-0.471,1.316-1.049v-6.624c0-0.578-0.589-1.048-1.316-1.048h-6.086  c-0.727,0-1.315,0.47-1.315,1.048v6.624C655.058,320.415,655.646,320.886,656.373,320.886z"/><path fill="none" d="M699.412,324.304h5.59c0.668,0,1.209-0.471,1.209-1.049v-6.624c0-0.578-0.541-1.048-1.209-1.048h-5.59  c-0.667,0-1.208,0.47-1.208,1.048v6.624C698.204,323.833,698.745,324.304,699.412,324.304z"/><path fill="none" d="M482.697,315.944h7.466c0.891,0,1.613-0.559,1.613-1.247v-7.877c0-0.688-0.723-1.247-1.613-1.247h-7.466  c-0.891,0-1.613,0.559-1.613,1.247v7.877C481.084,315.386,481.807,315.944,482.697,315.944z"/><path fill="none" d="M440.191,329.504c0-9.909-8.032-17.941-17.941-17.941c-9.909,0-17.941,8.032-17.941,17.941  c0,0.535,0.034,1.064,0.08,1.588h-0.139v4.416v38.055h36v-38.025v-4.445h-0.139C440.157,330.568,440.191,330.039,440.191,329.504z"/><path fill="none" d="M440.191,329.504c0-9.909-8.032-17.941-17.941-17.941c-9.909,0-17.941,8.032-17.941,17.941  c0,0.535,0.034,1.064,0.08,1.588h-0.139v4.416v38.055h36v-38.025v-4.445h-0.139C440.157,330.568,440.191,330.039,440.191,329.504z"/><path fill="none" d="M363.029,195.197h-11.955c-0.536,0-0.972,0.41-0.972,0.917v14.172c0,0.506,0.436,0.917,0.972,0.917h11.955  c0.536,0,0.972-0.412,0.972-0.917v-14.172C364.001,195.607,363.565,195.197,363.029,195.197z"/><path fill="none" d="M329.761,197.291h-11.343c-0.508,0-0.922,0.39-0.922,0.87v13.446c0,0.48,0.414,0.871,0.922,0.871h11.343  c0.508,0,0.922-0.39,0.922-0.871v-13.446C330.683,197.681,330.27,197.291,329.761,197.291z"/><path fill="none" d="M269.415,203.271h-9.718c-0.435,0-0.79,0.338-0.79,0.756v11.691c0,0.417,0.354,0.756,0.79,0.756h9.718  c0.436,0,0.79-0.339,0.79-0.756v-11.691C270.204,203.61,269.851,203.271,269.415,203.271z"/><path fill="none" d="M428.813,193.473h-12.588c-0.563,0-1.022,0.433-1.022,0.965v14.92c0,0.533,0.459,0.965,1.022,0.965h12.588  c0.563,0,1.022-0.433,1.022-0.965v-14.92C429.835,193.906,429.376,193.473,428.813,193.473z"/><path fill="none" d="M395.557,193.945h-12.469c-0.558,0-1.013,0.428-1.013,0.956v14.78c0,0.528,0.455,0.957,1.013,0.957h12.469  c0.56,0,1.013-0.429,1.013-0.957v-14.78C396.569,194.373,396.116,193.945,395.557,193.945z"/><path fill="none" d="M142.763,230.428h-3.844c-0.172,0-0.313,0.132-0.313,0.294v4.558c0,0.163,0.141,0.295,0.313,0.295h3.844  c0.172,0,0.313-0.132,0.313-0.295v-4.558C143.076,230.56,142.936,230.428,142.763,230.428z"/><path fill="none" d="M168.988,221.968h-5.755c-0.258,0-0.467,0.198-0.467,0.441v6.823c0,0.244,0.209,0.441,0.467,0.441h5.755  c0.258,0,0.468-0.198,0.468-0.441v-6.823C169.456,222.166,169.247,221.968,168.988,221.968z"/><path fill="none" d="M459.738,193.689h-12.575c-0.563,0-1.021,0.433-1.021,0.965v14.905c0,0.533,0.457,0.966,1.021,0.966h12.575  c0.563,0,1.021-0.433,1.021-0.966v-14.905C460.76,194.122,460.301,193.689,459.738,193.689z"/><path fill="none" d="M194.667,215.841h-6.923c-0.31,0-0.563,0.238-0.563,0.531v8.207c0,0.293,0.253,0.531,0.563,0.531h6.923  c0.311,0,0.563-0.238,0.563-0.531v-8.207C195.23,216.079,194.978,215.841,194.667,215.841z"/><path fill="none" d="M244.075,206.655h-8.685c-0.389,0-0.706,0.311-0.706,0.694v10.739c0,0.384,0.316,0.695,0.706,0.695h8.685  c0.39,0,0.706-0.311,0.706-0.695v-10.739C244.781,206.966,244.464,206.655,244.075,206.655z"/><path fill="none" d="M220.334,210.629h-7.871c-0.353,0-0.639,0.278-0.639,0.622v9.615c0,0.344,0.287,0.623,0.639,0.623h7.871  c0.353,0,0.64-0.279,0.64-0.623v-9.615C220.974,210.907,220.687,210.629,220.334,210.629z"/><path fill="none" d="M297.562,199.977h-10.671c-0.478,0-0.866,0.366-0.866,0.818v12.649c0,0.452,0.389,0.818,0.866,0.818h10.671  c0.478,0,0.866-0.366,0.866-0.818v-12.649C298.428,200.343,298.04,199.977,297.562,199.977z"/><path fill="none" d="M661.813,216.213h-6.935c-0.311,0-0.563,0.238-0.563,0.532v8.22c0,0.293,0.253,0.532,0.563,0.532h6.935  c0.311,0,0.563-0.238,0.563-0.532v-8.22C662.376,216.452,662.123,216.213,661.813,216.213z"/><path fill="none" d="M683.321,222.042h-5.568c-0.249,0-0.453,0.191-0.453,0.427v6.603c0,0.236,0.204,0.428,0.453,0.428h5.568  c0.252,0,0.453-0.191,0.453-0.428v-6.603C683.774,222.234,683.573,222.042,683.321,222.042z"/><path fill="none" d="M638.835,211.426h-7.868c-0.354,0-0.64,0.271-0.64,0.604v9.329c0,0.333,0.286,0.604,0.64,0.604h7.868  c0.354,0,0.64-0.271,0.64-0.604v-9.329C639.475,211.697,639.188,211.426,638.835,211.426z"/><path fill="none" d="M493.354,194.92h-12.106c-0.544,0-0.985,0.416-0.985,0.929v14.35c0,0.513,0.441,0.93,0.985,0.93h12.106  c0.542,0,0.982-0.417,0.982-0.93v-14.35C494.336,195.336,493.896,194.92,493.354,194.92z"/><path fill="none" d="M705.381,229.183h-4.118c-0.184,0-0.334,0.141-0.334,0.316v4.881c0,0.174,0.15,0.316,0.334,0.316h4.118  c0.185,0,0.334-0.142,0.334-0.316v-4.881C705.715,229.324,705.565,229.183,705.381,229.183z"/><path fill="none" d="M524.735,196.705h-11.719c-0.526,0-0.953,0.402-0.953,0.899v13.893c0,0.496,0.427,0.899,0.953,0.899h11.719  c0.526,0,0.953-0.403,0.953-0.899v-13.893C525.688,197.107,525.262,196.705,524.735,196.705z"/><path fill="none" d="M557.979,199.867h-10.613c-0.477,0-0.863,0.365-0.863,0.814v12.581c0,0.45,0.387,0.815,0.863,0.815h10.613  c0.476,0,0.863-0.365,0.863-0.815v-12.581C558.843,200.232,558.455,199.867,557.979,199.867z"/><path fill="none" d="M614.406,207.21h-8.832c-0.396,0-0.717,0.303-0.717,0.677v10.469c0,0.374,0.321,0.677,0.717,0.677h8.832  c0.395,0,0.717-0.303,0.717-0.677v-10.469C615.123,207.513,614.801,207.21,614.406,207.21z"/><path fill="none" d="M588.95,203.332h-9.964c-0.447,0-0.812,0.342-0.812,0.764v11.814c0,0.421,0.364,0.764,0.812,0.764h9.964  c0.448,0,0.811-0.343,0.811-0.764v-11.814C589.761,203.673,589.398,203.332,588.95,203.332z"/><path d="M721.178,233.585c0.011-0.338-0.078-0.873-0.178-1.267c-0.135-0.214,0,0-0.584-0.387  c-49.873-24.971-164.027-42.429-296.896-42.429c-138.157,0-256.058,18.878-302.521,45.448v10.534c0,0.078,0,0.152,0,0.231  c24.365-10.129,69.134-18.711,126.535-24.538c50.657-5.11,111.086-8.079,175.985-8.079c131.067,0,243.926,12.106,294.833,29.514  c0.048,0.017,2.831,0.844,2.835,0.941c0.023,0.008,0.047,0.016,0.069,0.023c0.005-0.551,0.003-1.388-0.005-2.367  C721.274,240.122,721.249,236.699,721.178,233.585z M143.076,235.281c0,0.163-0.14,0.295-0.313,0.295h-3.844  c-0.172,0-0.313-0.132-0.313-0.295v-4.558c0-0.163,0.141-0.294,0.313-0.294h3.844c0.172,0,0.313,0.132,0.313,0.294V235.281z   M169.456,229.232c0,0.244-0.209,0.441-0.468,0.441h-5.755c-0.258,0-0.467-0.198-0.467-0.441v-6.823  c0-0.244,0.209-0.441,0.467-0.441h5.755c0.258,0,0.468,0.198,0.468,0.441V229.232z M195.23,224.579c0,0.293-0.252,0.531-0.563,0.531  h-6.923c-0.31,0-0.563-0.238-0.563-0.531v-8.207c0-0.293,0.253-0.531,0.563-0.531h6.923c0.311,0,0.563,0.238,0.563,0.531V224.579z   M220.974,220.866c0,0.344-0.287,0.623-0.64,0.623h-7.871c-0.353,0-0.639-0.279-0.639-0.623v-9.615c0-0.344,0.287-0.622,0.639-0.622  h7.871c0.353,0,0.64,0.278,0.64,0.622V220.866z M244.781,218.088c0,0.384-0.316,0.695-0.706,0.695h-8.685  c-0.389,0-0.706-0.311-0.706-0.695v-10.739c0-0.383,0.316-0.694,0.706-0.694h8.685c0.39,0,0.706,0.311,0.706,0.694V218.088z   M270.204,215.719c0,0.417-0.354,0.756-0.79,0.756h-9.718c-0.435,0-0.79-0.339-0.79-0.756v-11.691c0-0.418,0.354-0.756,0.79-0.756  h9.718c0.436,0,0.79,0.338,0.79,0.756V215.719z M298.428,213.444c0,0.452-0.389,0.818-0.866,0.818h-10.671  c-0.478,0-0.866-0.366-0.866-0.818v-12.649c0-0.452,0.389-0.818,0.866-0.818h10.671c0.478,0,0.866,0.366,0.866,0.818V213.444z   M330.683,211.607c0,0.48-0.414,0.871-0.922,0.871h-11.343c-0.508,0-0.922-0.39-0.922-0.871v-13.446c0-0.48,0.414-0.87,0.922-0.87  h11.343c0.508,0,0.922,0.39,0.922,0.87V211.607z M364.001,210.285c0,0.506-0.436,0.917-0.972,0.917h-11.955  c-0.536,0-0.972-0.412-0.972-0.917v-14.172c0-0.506,0.436-0.917,0.972-0.917h11.955c0.536,0,0.972,0.41,0.972,0.917V210.285z   M396.569,209.681c0,0.528-0.453,0.957-1.013,0.957h-12.469c-0.558,0-1.013-0.429-1.013-0.957v-14.78  c0-0.528,0.455-0.956,1.013-0.956h12.469c0.56,0,1.013,0.428,1.013,0.956V209.681z M429.835,209.359  c0,0.533-0.459,0.965-1.022,0.965h-12.588c-0.563,0-1.022-0.433-1.022-0.965v-14.92c0-0.533,0.459-0.965,1.022-0.965h12.588  c0.563,0,1.022,0.433,1.022,0.965V209.359z M460.76,209.56c0,0.533-0.459,0.966-1.021,0.966h-12.575  c-0.563,0-1.021-0.433-1.021-0.966v-14.905c0-0.532,0.457-0.965,1.021-0.965h12.575c0.563,0,1.021,0.433,1.021,0.965V209.56z   M494.336,210.199c0,0.513-0.44,0.93-0.982,0.93h-12.106c-0.544,0-0.985-0.417-0.985-0.93v-14.35c0-0.513,0.441-0.929,0.985-0.929  h12.106c0.542,0,0.982,0.416,0.982,0.929V210.199z M525.688,211.497c0,0.496-0.427,0.899-0.953,0.899h-11.719  c-0.526,0-0.953-0.403-0.953-0.899v-13.893c0-0.497,0.427-0.899,0.953-0.899h11.719c0.526,0,0.953,0.402,0.953,0.899V211.497z   M558.843,213.262c0,0.45-0.388,0.815-0.863,0.815h-10.613c-0.477,0-0.863-0.365-0.863-0.815v-12.581  c0-0.449,0.387-0.814,0.863-0.814h10.613c0.476,0,0.863,0.365,0.863,0.814V213.262z M589.761,215.91  c0,0.421-0.362,0.764-0.811,0.764h-9.964c-0.447,0-0.812-0.343-0.812-0.764v-11.814c0-0.422,0.364-0.764,0.812-0.764h9.964  c0.448,0,0.811,0.342,0.811,0.764V215.91z M615.123,218.355c0,0.374-0.322,0.677-0.717,0.677h-8.832  c-0.396,0-0.717-0.303-0.717-0.677v-10.469c0-0.374,0.321-0.677,0.717-0.677h8.832c0.395,0,0.717,0.303,0.717,0.677V218.355z   M639.475,221.358c0,0.333-0.286,0.604-0.64,0.604h-7.868c-0.354,0-0.64-0.271-0.64-0.604v-9.329c0-0.333,0.286-0.604,0.64-0.604  h7.868c0.354,0,0.64,0.271,0.64,0.604V221.358z M662.376,224.965c0,0.293-0.253,0.532-0.563,0.532h-6.935  c-0.311,0-0.563-0.238-0.563-0.532v-8.22c0-0.293,0.253-0.532,0.563-0.532h6.935c0.311,0,0.563,0.238,0.563,0.532V224.965z   M683.774,229.072c0,0.236-0.201,0.428-0.453,0.428h-5.568c-0.249,0-0.453-0.191-0.453-0.428v-6.603  c0-0.235,0.204-0.427,0.453-0.427h5.568c0.252,0,0.453,0.191,0.453,0.427V229.072z M705.715,234.38c0,0.174-0.149,0.316-0.334,0.316  h-4.118c-0.184,0-0.334-0.142-0.334-0.316v-4.881c0-0.175,0.15-0.316,0.334-0.316h4.118c0.185,0,0.334,0.141,0.334,0.316V234.38z"/><path fill="none" d="M242.239,308.538h-6.972c-0.832,0-1.507,0.559-1.507,1.247v7.877c0,0.688,0.675,1.247,1.507,1.247h6.972  c0.832,0,1.507-0.559,1.507-1.247v-7.877C243.746,309.097,243.071,308.538,242.239,308.538z"/><path fill="none" d="M482.697,315.944h7.466c0.891,0,1.613-0.559,1.613-1.247v-7.877c0-0.688-0.723-1.247-1.613-1.247h-7.466  c-0.891,0-1.613,0.559-1.613,1.247v7.877C481.084,315.386,481.807,315.944,482.697,315.944z"/><path fill="none" d="M193.447,311.014h-6.914c-0.825,0-1.494,0.559-1.494,1.247v7.877c0,0.688,0.669,1.247,1.494,1.247h6.914  c0.825,0,1.494-0.559,1.494-1.247v-7.877C194.941,311.572,194.272,311.014,193.447,311.014z"/><path fill="none" d="M142.379,314.314h-6.478c-0.773,0-1.4,0.559-1.4,1.247v7.877c0,0.688,0.627,1.247,1.4,1.247h6.478  c0.773,0,1.4-0.559,1.4-1.247v-7.877C143.779,314.873,143.152,314.314,142.379,314.314z"/><path fill="none" d="M699.412,324.304h5.59c0.668,0,1.209-0.471,1.209-1.049v-6.624c0-0.578-0.541-1.048-1.209-1.048h-5.59  c-0.667,0-1.208,0.47-1.208,1.048v6.624C698.204,323.833,698.745,324.304,699.412,324.304z"/><path fill="none" d="M656.373,320.886h6.086c0.728,0,1.316-0.471,1.316-1.049v-6.624c0-0.578-0.589-1.048-1.316-1.048h-6.086  c-0.727,0-1.315,0.47-1.315,1.048v6.624C655.058,320.415,655.646,320.886,656.373,320.886z"/><path fill="none" d="M546.192,316.307h6.924c0.827,0,1.497-0.503,1.497-1.121v-7.078c0-0.618-0.67-1.12-1.497-1.12h-6.924  c-0.827,0-1.497,0.502-1.497,1.12v7.078C544.695,315.804,545.365,316.307,546.192,316.307z"/><path fill="none" d="M606.354,318.975h6.504c0.777,0,1.406-0.503,1.406-1.121v-7.078c0-0.618-0.629-1.12-1.406-1.12h-6.504  c-0.777,0-1.406,0.502-1.406,1.12v7.078C604.947,318.472,605.576,318.975,606.354,318.975z"/><path fill="none" d="M294.12,306.888h-7.466c-0.891,0-1.613,0.559-1.613,1.247v7.877c0,0.688,0.723,1.247,1.613,1.247h7.466  c0.891,0,1.613-0.559,1.613-1.247v-7.877C295.733,307.446,295.011,306.888,294.12,306.888z"/><path fill="none" d="M361.197,304.983h-7.466c-0.891,0-1.613,0.559-1.613,1.247v7.877c0,0.688,0.723,1.247,1.613,1.247h7.466  c0.891,0,1.613-0.559,1.613-1.247v-7.877C362.81,305.542,362.087,304.983,361.197,304.983z"/><path fill="none" d="M440.191,329.504c0-9.909-8.032-17.941-17.941-17.941c-9.909,0-17.941,8.032-17.941,17.941  c0,0.535,0.034,1.064,0.08,1.588h-0.139v4.416v38.055h36v-38.025v-4.445h-0.139C440.157,330.568,440.191,330.039,440.191,329.504z"/><path d="M721.436,328.41c0.008-4.688,0.015-9.337,0.02-13.913c-52.035-7.483-168.374-12.696-303.583-12.696  c-129.674,0-241.991,4.795-296.872,11.789c0,5.578,0,11.271,0,17.01c59.995-6.777,160.934-11.467,277.5-12.228v3.03  c-116.557,0.761-217.504,5.448-277.5,12.225c0,2.676,0,5.358,0,8.046c0,10.813,0,21.675,0,32.214  c76.545,3.824,180.3,6.173,294.556,6.173c119.94,0,228.309-2.589,305.776-6.755c0.029-10.169,0.056-20.628,0.078-31.046  c0.008-3.618,0.015-7.224,0.021-10.817c-64.902-5.931-163.709-9.821-275.181-10.128v-3.03  C557.719,318.59,656.532,322.479,721.436,328.41z M698.204,316.631c0-0.578,0.541-1.048,1.208-1.048h5.59  c0.668,0,1.209,0.47,1.209,1.048v6.624c0,0.578-0.541,1.049-1.209,1.049h-5.59c-0.667,0-1.208-0.471-1.208-1.049V316.631z   M655.058,313.213c0-0.578,0.589-1.048,1.315-1.048h6.086c0.728,0,1.316,0.47,1.316,1.048v6.624c0,0.578-0.589,1.049-1.316,1.049  h-6.086c-0.727,0-1.315-0.471-1.315-1.049V313.213z M604.947,310.775c0-0.618,0.629-1.12,1.406-1.12h6.504  c0.777,0,1.406,0.502,1.406,1.12v7.078c0,0.618-0.629,1.121-1.406,1.121h-6.504c-0.777,0-1.406-0.503-1.406-1.121V310.775z   M544.695,308.107c0-0.618,0.67-1.12,1.497-1.12h6.924c0.827,0,1.497,0.502,1.497,1.12v7.078c0,0.618-0.67,1.121-1.497,1.121h-6.924  c-0.827,0-1.497-0.503-1.497-1.121V308.107z M481.084,306.82c0-0.688,0.723-1.247,1.613-1.247h7.466  c0.891,0,1.613,0.559,1.613,1.247v7.877c0,0.688-0.723,1.247-1.613,1.247h-7.466c-0.891,0-1.613-0.559-1.613-1.247V306.82z   M143.779,323.438c0,0.688-0.627,1.247-1.4,1.247h-6.478c-0.773,0-1.4-0.559-1.4-1.247v-7.877c0-0.688,0.627-1.247,1.4-1.247h6.478  c0.773,0,1.4,0.559,1.4,1.247V323.438z M194.941,320.138c0,0.688-0.669,1.247-1.494,1.247h-6.914c-0.825,0-1.494-0.559-1.494-1.247  v-7.877c0-0.688,0.669-1.247,1.494-1.247h6.914c0.825,0,1.494,0.559,1.494,1.247V320.138z M243.746,317.662  c0,0.688-0.675,1.247-1.507,1.247h-6.972c-0.832,0-1.507-0.559-1.507-1.247v-7.877c0-0.688,0.675-1.247,1.507-1.247h6.972  c0.832,0,1.507,0.559,1.507,1.247V317.662z M295.733,316.012c0,0.688-0.723,1.247-1.613,1.247h-7.466  c-0.891,0-1.613-0.559-1.613-1.247v-7.877c0-0.688,0.723-1.247,1.613-1.247h7.466c0.891,0,1.613,0.559,1.613,1.247V316.012z   M362.81,314.107c0,0.688-0.723,1.247-1.613,1.247h-7.466c-0.891,0-1.613-0.559-1.613-1.247v-7.877c0-0.688,0.723-1.247,1.613-1.247  h7.466c0.891,0,1.613,0.559,1.613,1.247V314.107z M169.463,372.819h-7.885v-20.681h7.885V372.819z M320.418,375.802h-12.162v-26.528  h12.162V375.802z M680.559,352.139h7.885v20.681h-7.885V352.139z M519.607,349.273h12.161v26.528h-12.161V349.273z M440.25,335.537  v38.025h-36v-38.055v-4.416h0.139c-0.046-0.523-0.08-1.053-0.08-1.588c0-9.909,8.033-17.941,17.941-17.941  c9.909,0,17.941,8.032,17.941,17.941c0,0.535-0.034,1.064-0.08,1.588h0.139V335.537z"/><path d="M421.182,213.913C283.617,214.114,166.591,227.648,121,246.603c0,2.027,0,4.546,0,7.438  c60.258-15.73,170.916-26.275,297.493-26.275c0.898,0,1.792,0.003,2.688,0.004c0.896-0.001,1.791-0.004,2.688-0.004  c126.577,0,237.234,10.545,297.493,26.275c0-2.892,0-5.41,0-7.438C675.772,227.648,558.747,214.114,421.182,213.913z"/></svg>